<svg xmlns="http://www.w3.org/2000/svg" viewBox="0 0 640 300" width="640" height="300" role="img" aria-labelledby="title"><title id="title">Ein unberührter Suppenteller und ein verbrannter Mund</title><rect width="640" height="300" rx="18" fill="#f4ead7"/><g stroke="#254b43" stroke-width="3" stroke-linecap="round" stroke-linejoin="round"><path d="M30 247Q140 220 265 241T610 241" fill="none" stroke="#c9bea0"/><g transform="translate(221 226) scale(1.5) rotate(0)"><path d="M-42-10H42Q36 29 0 29Q-36 29-42-10Z" fill="#d6a34d" /><path d="M-32-4H32" fill="none" /></g><g transform="translate(427 198) scale(1.3) rotate(0)"><circle cx="0" cy="-52" r="12" fill="#dfaf82"/><path d="M-15-31 Q0-40 15-31 L20 8 H-20Z" fill="#ba6749" /><path d="M-10 8 L-14 37 M10 8 L14 37 M-15-26 L-34-7 M15-26 L35-11" fill="none" /></g><path d="M407 140H433" fill="none" stroke="#ba6749" stroke-width="6"/><g transform="translate(223 173) scale(0.7) rotate(0)"><path d="M-12 0Q-36-20-7-32Q14-46-3-61 M14 3Q38-14 15-31Q-6-48 20-65" fill="none" stroke="#a6a797" stroke-width="7"/></g></g></svg>