<svg xmlns="http://www.w3.org/2000/svg" viewBox="0 0 640 300" width="640" height="300" role="img" aria-labelledby="title"><title id="title">Ein Gesicht und ein Herz spiegeln sich</title><rect width="640" height="300" rx="18" fill="#f4ead7"/><g stroke="#254b43" stroke-width="3" stroke-linecap="round" stroke-linejoin="round"><path d="M30 247Q140 220 265 241T610 241" fill="none" stroke="#c9bea0"/><g transform="translate(226 204) scale(1.4) rotate(0)"><circle cx="0" cy="-52" r="12" fill="#dfaf82"/><path d="M-15-31 Q0-40 15-31 L20 8 H-20Z" fill="#ba6749" /><path d="M-10 8 L-14 37 M10 8 L14 37 M-15-26 L-34-7 M15-26 L35-11" fill="none" /></g><g transform="translate(420 153) scale(1.5) rotate(0)"><ellipse cx="0" cy="-9" rx="30" ry="42" fill="#b8d0c9"/><path d="M0 33V57 M-17 57H17 M-15-24L11-43 M-14-8L14-36" fill="none" /></g><g transform="translate(420 137) scale(0.5) rotate(0)"><path d="M0 29Q-53-6-26-29Q-10-41 0-22Q10-41 26-29Q53-6 0 29Z" fill="#ba6749" /></g></g></svg>