<svg xmlns="http://www.w3.org/2000/svg" viewBox="0 0 640 300" width="640" height="300" role="img" aria-labelledby="title"><title id="title">Zwei Hähne stehen einander auf einem Misthaufen gegenüber</title><rect width="640" height="300" rx="18" fill="#f4ead7"/><g stroke="#254b43" stroke-width="3" stroke-linecap="round" stroke-linejoin="round"><path d="M30 247Q140 220 265 241T610 241" fill="none" stroke="#c9bea0"/><ellipse cx="324" cy="243" rx="183" ry="25" fill="#a28e66"/><g transform="translate(222 202) scale(1.3) rotate(0)"><ellipse cx="0" cy="0" rx="28" ry="20" fill="#ba6749"/><path d="M-23-7Q-64-51-53-7Q-49 15-23 9" fill="#42695b" /><path d="M15-7V-29Q14-42 29-43Q43-36 34-19L28 5" fill="#d6a34d" /><path d="M17-42Q7-64 22-56Q28-76 34-56Q52-58 36-42" fill="#ba6749" /><path d="M36-32L51-25L36-21Z" fill="#d6a34d" /><circle cx="29" cy="-33" r="2" fill="#254b43"/><path d="M-8 19V36 M10 19V36" fill="none" /></g><g transform="translate(424 202) scale(1.3) rotate(0)"><g transform="scale(-1 1)"><ellipse cx="0" cy="0" rx="28" ry="20" fill="#ba6749"/><path d="M-23-7Q-64-51-53-7Q-49 15-23 9" fill="#42695b" /><path d="M15-7V-29Q14-42 29-43Q43-36 34-19L28 5" fill="#d6a34d" /><path d="M17-42Q7-64 22-56Q28-76 34-56Q52-58 36-42" fill="#ba6749" /><path d="M36-32L51-25L36-21Z" fill="#d6a34d" /><circle cx="29" cy="-33" r="2" fill="#254b43"/><path d="M-8 19V36 M10 19V36" fill="none" /></g></g><path d="M309 114l13 22-12 13 18 21" fill="none" stroke="#ba6749" stroke-width="5"/></g></svg>