<svg xmlns="http://www.w3.org/2000/svg" viewBox="0 0 640 300" width="640" height="300" role="img" aria-labelledby="title"><title id="title">Gelber Hund und Schakal teilen sich eine Decke</title><rect width="640" height="300" rx="18" fill="#f4ead7"/><g stroke="#254b43" stroke-width="3" stroke-linecap="round" stroke-linejoin="round"><path d="M30 247Q140 220 265 241T610 241" fill="none" stroke="#c9bea0"/><g transform="translate(231 211) scale(1.1) rotate(0)"><ellipse cx="-5" cy="4" rx="33" ry="23" fill="#d6a34d"/><rect x="15" y="-30" width="26" height="35" rx="5" fill="#d6a34d"/><path d="M16-28Q-4-36 3-2L19-5Z" fill="#785f4b" /><circle cx="32" cy="-17" r="2" fill="#254b43"/><path d="M-25 20V38 M13 20V38 M-36 0L-51-21 M40-9H50" fill="none" /></g><g transform="translate(421 211) scale(1.1) rotate(0)"><ellipse cx="-7" cy="7" rx="34" ry="20" fill="#8e9c91"/><path d="M13-1L12-35L24-27L32-45L40-16L54-4L31 5Z" fill="#8e9c91" /><path d="M-38 7L-62-5L-48 23L-29 22 M-24 23V39 M17 20V39" fill="none" /><circle cx="35" cy="-17" r="2" fill="#254b43"/></g><path d="M209 186Q318 150 440 181L435 217H218Z" fill="#ba6749" /><path d="M243 182L265 214 M303 174L326 214 M363 177L387 214" fill="none" stroke="#e4c997"/></g></svg>