<svg xmlns="http://www.w3.org/2000/svg" viewBox="0 0 640 300" width="640" height="300" role="img" aria-labelledby="title"><title id="title">Eine Katze lauert einer Maus neben der Vorratskammer auf</title><rect width="640" height="300" rx="18" fill="#f4ead7"/><g stroke="#254b43" stroke-width="3" stroke-linecap="round" stroke-linejoin="round"><path d="M30 247Q140 220 265 241T610 241" fill="none" stroke="#c9bea0"/><g transform="translate(226 210) scale(1.4) rotate(0)"><ellipse cx="0" cy="8" rx="29" ry="22" fill="#c49a69"/><path d="M-25 6Q-55-14-43-35" fill="none" /><path d="M10-9L7-41L23-30L41-40L42-7Z" fill="#c49a69" /><circle cx="19" cy="-17" r="2" fill="#254b43"/><circle cx="33" cy="-17" r="2" fill="#254b43"/><path d="M22-8H29 M-12 23V36 M17 23V36 M11-10L-5-15 M39-10L55-15" fill="none" /></g><g transform="translate(448 231) scale(0.85) rotate(0)"><ellipse cx="0" cy="7" rx="28" ry="16" fill="#9b9f8c"/><circle cx="19" cy="-9" r="12" fill="#c9b1a4"/><path d="M22-3L44 9L22 21Z" fill="#9b9f8c" /><circle cx="30" cy="5" r="2" fill="#254b43"/><path d="M-27 7Q-62-23-57 12 M-10 21V28 M12 21V28" fill="none" /></g><g transform="translate(511 205) scale(0.7) rotate(0)"><path d="M0 37V-31" fill="none" /><path d="M0 -22Q-28 -41-22 -24Q-8 -12 0 -16 M0 -22Q28 -4122 -24Q8 -12 0 -16" fill="#d6a34d" /><path d="M0 -6Q-28 -25-22 -8Q-8 4 0 0 M0 -6Q28 -2522 -8Q8 4 0 0" fill="#d6a34d" /><path d="M0 10Q-28 -9-22 8Q-8 20 0 16 M0 10Q28 -922 8Q8 20 0 16" fill="#d6a34d" /></g><path d="M367 252V165Q414 119 461 165V203" fill="none" /><path d="M286 164l22 8 M289 184h25" fill="none" /></g></svg>