<svg xmlns="http://www.w3.org/2000/svg" viewBox="0 0 640 300" width="640" height="300" role="img" aria-labelledby="title"><title id="title">Ein Mensch weicht einem schwarz-weißen Seil vor einer Tür aus</title><rect width="640" height="300" rx="18" fill="#f4ead7"/><g stroke="#254b43" stroke-width="3" stroke-linecap="round" stroke-linejoin="round"><path d="M30 247Q140 220 265 241T610 241" fill="none" stroke="#c9bea0"/><rect x="105" y="67" width="89" height="178" rx="5" fill="#b58c64"/><g transform="translate(244 204) scale(1.1) rotate(-15)"><circle cx="0" cy="-52" r="12" fill="#dfaf82"/><path d="M-15-31 Q0-40 15-31 L20 8 H-20Z" fill="#ba6749" /><path d="M-10 8 L-14 37 M10 8 L14 37 M-15-26 L-34-7 M15-26 L35-11" fill="none" /></g><path d="M367 234Q398 173 440 217T541 207" fill="none" stroke="#fff8e7" stroke-width="13"/><path d="M367 234Q398 173 440 217T541 207" fill="none" stroke="#254b43" stroke-width="10" stroke-dasharray="10 14"/></g></svg>