<svg xmlns="http://www.w3.org/2000/svg" viewBox="0 0 640 300" width="640" height="300" role="img" aria-labelledby="title"><title id="title">Ein Kamel trägt eine gefährlich schiefe Last</title><rect width="640" height="300" rx="18" fill="#f4ead7"/><g stroke="#254b43" stroke-width="3" stroke-linecap="round" stroke-linejoin="round"><path d="M30 247Q140 220 265 241T610 241" fill="none" stroke="#c9bea0"/><g transform="translate(322 192) scale(1.55) rotate(0)"><path d="M-51 15L-50-2Q-39-46-21-9Q-2-45 13-9L28-7L30-45L44-51L55-41L43-31L44 12Z" fill="#c5a16c" /><path d="M-38 13V45 M-19 13V42 M24 13V42 M40 12V45 M-50 0L-63 15" fill="none" /><circle cx="43" cy="-43" r="2" fill="#254b43"/></g><g transform="translate(311 133) scale(1) rotate(24)"><rect x="-50" y="-35" width="100" height="35" rx="5" fill="#ba6749"/><path d="M-45-20H45" fill="none" /></g><path d="M419 161l28 15 M424 146l28 3" fill="none" /></g></svg>