<svg xmlns="http://www.w3.org/2000/svg" viewBox="0 0 640 300" width="640" height="300" role="img" aria-labelledby="title"><title id="title">Ein Wink zeigt den Weg zur offenen Tür</title><rect width="640" height="300" rx="18" fill="#f4ead7"/><g stroke="#254b43" stroke-width="3" stroke-linecap="round" stroke-linejoin="round"><path d="M30 247Q140 220 265 241T610 241" fill="none" stroke="#c9bea0"/><g transform="translate(186 168) scale(1.5) rotate(80)"><path d="M-25 20L-38-4Q-41-13-32-13L-17-2V-36Q-13-48-7-36V-10V-43Q0-53 5-42V-9V-37Q13-46 17-34V-7V-26Q26-35 29-21V15Q13 42-12 33Z" fill="#dfaf82" /></g><rect x="406" y="90" width="74" height="159" rx="5" fill="#d7c6a2"/><path d="M406 90L446 111V247L406 249Z" fill="#ba6749" /><path d="M264 159H357L342 144 M357 159L342 174" fill="none" /></g></svg>