<svg xmlns="http://www.w3.org/2000/svg" viewBox="0 0 640 300" width="640" height="300" role="img" aria-labelledby="title"><title id="title">Eine Katze blickt zu unerreichbar hoch hängendem Fleisch</title><rect width="640" height="300" rx="18" fill="#f4ead7"/><g stroke="#254b43" stroke-width="3" stroke-linecap="round" stroke-linejoin="round"><path d="M30 247Q140 220 265 241T610 241" fill="none" stroke="#c9bea0"/><g transform="translate(241 210) scale(1.4) rotate(0)"><ellipse cx="0" cy="8" rx="29" ry="22" fill="#c49a69"/><path d="M-25 6Q-55-14-43-35" fill="none" /><path d="M10-9L7-41L23-30L41-40L42-7Z" fill="#c49a69" /><circle cx="19" cy="-17" r="2" fill="#254b43"/><circle cx="33" cy="-17" r="2" fill="#254b43"/><path d="M22-8H29 M-12 23V36 M17 23V36 M11-10L-5-15 M39-10L55-15" fill="none" /></g><path d="M400 39V87" fill="none" /><path d="M398 89Q448 72 453 116Q441 145 398 128Q372 111 398 89Z" fill="#ba6749" /><path d="M413 92L430 122" fill="none" stroke="#f4ead7"/></g></svg>