<svg xmlns="http://www.w3.org/2000/svg" viewBox="0 0 640 300" width="640" height="300" role="img" aria-labelledby="title"><title id="title">Ein frischer Fisch wird aus dem Wasser gehoben</title><rect width="640" height="300" rx="18" fill="#f4ead7"/><g stroke="#254b43" stroke-width="3" stroke-linecap="round" stroke-linejoin="round"><path d="M30 247Q140 220 265 241T610 241" fill="none" stroke="#c9bea0"/><path d="M25 239Q75 224 125 239T225 239T325 239T425 239T525 239T625 239" fill="none" stroke="#73a6a5" stroke-width="5"/><g transform="translate(329 164) scale(1.4) rotate(-22)"><path d="M-42 0Q-5-37 33-2L52-22V22L33 2Q-5 37-42 0Z" fill="#73a6a5" /><circle cx="-24" cy="-3" r="3" fill="#254b43"/><path d="M-10-18Q3 0-10 18" fill="none" /></g><path d="M323 140L360 54L515 173" fill="none" /><g transform="translate(544 209) scale(1) rotate(0)"><circle cx="0" cy="-52" r="12" fill="#dfaf82"/><path d="M-15-31 Q0-40 15-31 L20 8 H-20Z" fill="#ba6749" /><path d="M-10 8 L-14 37 M10 8 L14 37 M-15-26 L-34-7 M15-26 L35-11" fill="none" /></g><g transform="translate(265 211) scale(0.4) rotate(0)"><path d="M0-27Q-31 8-16 20Q0 35 16 20Q31 8 0-27Z" fill="#73a6a5" /></g></g></svg>