<svg xmlns="http://www.w3.org/2000/svg" viewBox="0 0 640 300" width="640" height="300" role="img" aria-labelledby="title"><title id="title">Huhn und große Gans auf gegenüberliegenden Seiten eines Zauns</title><rect width="640" height="300" rx="18" fill="#f4ead7"/><g stroke="#254b43" stroke-width="3" stroke-linecap="round" stroke-linejoin="round"><path d="M30 247Q140 220 265 241T610 241" fill="none" stroke="#c9bea0"/><g transform="translate(177 212) scale(1) rotate(0)"><ellipse cx="0" cy="0" rx="30" ry="20" fill="#dfb76d"/><circle cx="24" cy="-23" r="15" fill="#dfb76d"/><path d="M36-24L53-18L36-14Z" fill="#ba6749" /><path d="M-25-5L-49-28L-39 9Z" fill="#8e7352" /><path d="M-5-8Q-12 17 18 7 M-7 20V34 M9 20V34" fill="none" /><circle cx="29" cy="-27" r="2" fill="#254b43"/></g><g transform="translate(320 200) scale(1.5) rotate(0)"><path d="M-40 33V-31" fill="none" stroke="#ac8965" stroke-width="9"/><path d="M-20 33V-31" fill="none" stroke="#ac8965" stroke-width="9"/><path d="M0 33V-31" fill="none" stroke="#ac8965" stroke-width="9"/><path d="M20 33V-31" fill="none" stroke="#ac8965" stroke-width="9"/><path d="M40 33V-31" fill="none" stroke="#ac8965" stroke-width="9"/><path d="M-47-17H47 M-47 13H47" fill="none" /></g><g transform="translate(478 190) scale(1.4) rotate(0)"><ellipse cx="-8" cy="8" rx="34" ry="22" fill="#fff8e7"/><path d="M10-3Q30-10 23-34Q18-63 38-60Q59-53 42-39L42-3Q35 20 13 23" fill="#fff8e7" /><path d="M45-51L64-45L45-41Z" fill="#ba6749" /><circle cx="38" cy="-51" r="2" fill="#254b43"/><path d="M-22 27V39L-8 39 M4 29V41L18 41 M-29 0Q-10 26 12 5" fill="none" /></g><path d="M410 245l7-19 8 17 M510 243l9-26 8 22" fill="none" stroke="#789478"/></g></svg>